<svg width="347" height="259" viewBox="0 0 347 259" fill="none" xmlns="http://www.w3.org/2000/svg">
<path d="M16.3961 91.0328L17.7701 51.4994L65.5455 17.6088L105.667 18.9957M16.3961 91.0328L64.0312 61.1762L63.3583 80.5395M16.3961 91.0328L39.5547 95.0644L63.3583 80.5395M58.1707 229.798L98.3769 228.765M58.1707 229.798L78.5385 233.186L121.564 231.99M58.1707 229.798L63.3583 80.5395M98.3769 228.765L105.667 18.9957M98.3769 228.765L121.564 231.99M105.667 18.9957L128.798 23.8341L121.564 231.99" stroke="white" stroke-width="2"/>
<path d="M205.168 234.111C159.097 225.965 141.548 186.226 148.218 111.539C154.831 37.4746 203.614 18.9584 227.179 18.9584C240.362 18.2902 251.708 20.5142 261.353 24.9871M205.168 234.111C216.205 236.063 228.88 236.201 243.25 234.572C309.056 227.114 335.603 59.4192 261.353 24.9871M205.168 234.111C354.29 281.29 370.706 39.6857 261.353 24.9871" stroke="white" stroke-width="2"/>
<path d="M244.971 59.5461C281.335 79.7952 265.185 190.444 234.473 198.048C232.81 198.46 231.177 198.761 229.579 198.951M244.971 59.5461C240.634 57.131 235.55 56.0019 229.654 56.4868C218.291 56.6327 194.652 69.1738 191.002 118.172C186.705 175.859 203.677 202.025 229.579 198.951M244.971 59.5461C234.363 61.2993 214.393 75.6558 212.889 118.928C210.842 177.836 220.721 193.918 229.579 198.951" stroke="white" stroke-width="2"/>
</svg>
