<svg width="690" height="241" viewBox="0 0 690 241" fill="none" xmlns="http://www.w3.org/2000/svg">
<path d="M5.96757 77.8126L7.5653 36.8146L57.6494 1.89191L99.5885 3.52287M5.96757 77.8126L55.8886 47.0734L55.106 67.1541M5.96757 77.8126L30.1618 82.1053L55.106 67.1541M49.0738 221.943L91.1107 221.063M49.0738 221.943L70.353 225.554L115.338 224.52M49.0738 221.943L55.106 67.1541M91.1107 221.063L99.5885 3.52287M91.1107 221.063L115.338 224.52M99.5885 3.52287L123.75 8.6523L115.338 224.52" stroke="white" stroke-width="2"/>
<path d="M384.714 234.8C335.384 227.835 315.237 186.249 319.573 106.633C323.872 27.6806 375.103 6.2112 400.181 5.34549C414.185 4.15114 426.342 6.09785 436.773 10.4969M384.714 234.8C396.532 236.468 410.026 236.15 425.259 233.891C495.015 223.548 517.064 44.3608 436.773 10.4969M384.714 234.8C545.158 279.46 553.692 22.1003 436.773 10.4969" stroke="white" stroke-width="2"/>
<path d="M419.876 47.9209C458.897 68.0963 445.944 186.232 413.893 195.437C412.156 195.936 410.449 196.316 408.773 196.576M419.876 47.9209C415.222 45.5146 409.829 44.5018 403.64 45.2335C391.684 45.8057 367.258 59.9962 365.208 112.181C362.795 173.62 381.619 200.793 408.773 196.576M419.876 47.9209C408.773 50.1729 388.276 66.1572 388.276 112.181C388.276 174.834 399.264 191.555 408.773 196.576" stroke="white" stroke-width="2"/>
<path d="M611.404 60H575.98V116.497H522V152.757M611.404 60V116.497H635.864M611.404 60L635.864 65.0595V116.497M665.384 116.497V152.757H664.54M665.384 116.497L689 124.086V158.659M665.384 116.497H635.864M611.404 152.757V209.254M611.404 152.757H664.54M611.404 152.757L634.177 158.659M611.404 209.254H575.98M611.404 209.254L634.177 216M575.98 209.254V160.346M575.98 209.254L597.909 216H634.177M522 152.757H575.98V160.346M522 152.757L547.303 160.346H575.98M634.177 216V158.659M634.177 158.659H689M689 158.659L664.54 152.757" stroke="white" stroke-width="2"/>
<path d="M178.268 131.579L138.669 125.329L149.09 9.49991L275.388 7M178.268 131.579L200.776 136.162C205.5 130.219 217.366 119.159 227.036 122.457M178.268 131.579C195.91 111.084 214.319 114.357 227.036 122.457M176.6 165.744H132C134.155 182.437 143.62 206.512 165.346 221.575M176.6 165.744L200.776 169.911C199.627 175.605 200.148 187.493 217.866 194.493M176.6 165.744C176.6 189.91 200.776 199.993 217.866 194.493M184.937 46.1652L180.352 99.9132C188.11 92.0549 196.433 87.1219 204.944 84.5983M184.937 46.1652H275.388M184.937 46.1652L207.862 51.5817M275.388 46.1652V7M275.388 46.1652L299.981 49.4984M275.388 7C283.586 7.69442 299.981 9.49991 299.981 11.1665C299.981 12.8331 299.981 37.4155 299.981 49.4984M299.981 49.4984L207.862 51.5817M207.862 51.5817L204.944 84.5983M204.944 84.5983C217.032 81.0144 230.788 82.4139 240.375 84.5983M217.866 194.493C235.365 188.861 248.576 169.674 244.78 148.419C242.876 137.755 236.173 128.276 227.036 122.457V122.457M165.346 221.575C177.24 229.822 194.059 235.183 214.115 232.825C284.975 224.492 297.691 147.786 277.889 114.496C271.968 104.889 259.475 90.4114 240.375 84.5983M165.346 221.575C192.023 239.702 272.222 248.952 298.73 198.243C322.906 151.995 303.315 116.579 285.392 99.9132C280.39 94.9359 265.384 85.0801 240.375 84.5983" stroke="white" stroke-width="2"/>
</svg>
