<svg width="227" height="251" viewBox="0 0 227 251" fill="none" xmlns="http://www.w3.org/2000/svg">
<path d="M119.824 2.58488C63.5398 -6.26808 10.6636 32.6423 1.72138 89.4936C-5.86481 137.724 56.9973 215.917 76.2368 238.522C79.4023 242.242 84.7219 243.078 88.8763 240.51M119.824 2.58488C176.108 11.4378 214.486 64.7017 205.544 121.553C197.957 169.783 114.126 224.903 88.8763 240.51M119.824 2.58488C150.422 3.58744 212.362 28.1161 223.145 79.6662C237.173 146.732 197.111 183.168 115.488 240.513L105.855 247.688C101.998 250.56 96.5649 249.894 93.5172 246.174L88.8763 240.51M121.982 57.8759C118.824 56.2381 115.358 55.0758 111.659 54.494C92.8976 51.5431 75.2515 64.6444 72.2453 83.7569C69.2391 102.869 82.0111 120.755 100.772 123.706C103.199 124.088 105.607 124.201 107.966 124.067M121.982 57.8759C134.843 64.5452 142.6 79.0989 140.186 94.4433C137.569 111.084 123.853 123.168 107.966 124.067M121.982 57.8759C102.785 61.2102 73.4082 86.1571 107.966 124.067" stroke="white" stroke-width="2"/>
</svg>
