<svg width="110" height="100" viewBox="0 0 110 100" fill="none" xmlns="http://www.w3.org/2000/svg">
<path d="M49.559 20.2346L59.2769 37.1561C60.3744 37.1355 61.4769 37.1252 62.5846 37.1252C65.4325 37.1252 68.2376 37.1887 71 37.3158L49.559 0L26 41C30.1026 40.0622 34.4308 39.279 38.9692 38.6658L49.559 20.2346ZM32.1231 36.5893L49.559 6.22446L65.5333 34.049C64.5538 34.049 63.5692 34.049 62.5846 34.049H61.0462L52.2359 18.7094L49.5539 14.0411L46.8667 18.7094L37.041 35.7906C35.3795 36.0225 33.7333 36.3007 32.1128 36.5893H32.1231Z" fill="#F0F3F5"/>
<path d="M49.3813 5L31 37L38.0504 36.2258L49.3813 17.3871L60.2086 35.7097H66L49.3813 5Z" fill="#F0F3F5"/>
<path d="M34.604 93C22.5663 87.6074 15.2085 80.3863 15.2085 72.4554C15.2474 69.731 16.0611 67.0767 17.551 64.8146H85.9612L73.5119 42.804C78.2528 42.4 83.1664 42.1928 88.1919 42.1928C94.7262 42.1867 101.256 42.5533 107.75 43.291L109 43.4412C107.902 43.158 106.786 42.8869 105.651 42.6279C94.3783 40.1625 82.8767 38.9467 71.3472 39.0018H71.1287C68.2933 39.0018 65.4986 39.0743 62.7547 39.2038C61.84 39.2504 60.9304 39.2971 60.026 39.3592C51.8937 39.8472 43.8135 41.0044 35.8642 42.8196L33.9841 43.2754C29.8952 44.2783 25.8715 45.5396 21.9362 47.0518C8.4198 52.3408 5.57812e-06 59.795 5.57812e-06 68.0471C-0.0101571 78.6457 13.867 87.9234 34.604 93ZM62.714 44.0887L68.6846 54.6408H29.1873C37.5512 49.8854 49.1824 46.1763 62.714 44.0887Z" fill="#E62900"/>
<path d="M51.441 92L50.3448 88.7115H43.0632L41.967 92H38.0783L44.4725 73.7307H48.9355L55.3558 92H51.441ZM44.2116 85.3448H49.2226L46.7171 77.8804L44.2116 85.3448ZM67.8882 73.7307V77.1758H62.9555V92H59.3539V77.1758H54.4473V73.7307H67.8882ZM84.2262 89.625C82.3819 91.4519 80.1374 92.3654 77.4927 92.3654C74.848 92.3654 72.6035 91.4519 70.7591 89.625C68.9322 87.7807 68.0187 85.5275 68.0187 82.8654C68.0187 80.2033 68.9322 77.9587 70.7591 76.1318C72.6035 74.2875 74.848 73.3653 77.4927 73.3653C80.1374 73.3653 82.3819 74.2875 84.2262 76.1318C86.0705 77.9587 86.9927 80.2033 86.9927 82.8654C86.9927 85.5275 86.0705 87.7807 84.2262 89.625ZM73.2907 87.1717C74.4217 88.2852 75.8223 88.842 77.4927 88.842C79.163 88.842 80.5636 88.2852 81.6946 87.1717C82.8256 86.0407 83.391 84.6053 83.391 82.8654C83.391 81.1254 82.8256 79.69 81.6946 78.559C80.5636 77.4281 79.163 76.8626 77.4927 76.8626C75.8223 76.8626 74.4217 77.4281 73.2907 78.559C72.1598 79.69 71.5943 81.1254 71.5943 82.8654C71.5943 84.6053 72.1598 86.0407 73.2907 87.1717ZM107.402 73.7307V92H103.826V80.1511L98.6848 88.6332H98.2673L93.1258 80.1772V92H89.5241V73.7307H93.2302L98.476 82.3695L103.696 73.7307H107.402Z" fill="white"/>
</svg>
