<svg width="86" height="78" viewBox="0 0 86 78" fill="none" xmlns="http://www.w3.org/2000/svg">
<path fill-rule="evenodd" clip-rule="evenodd" d="M45.8821 28.9999L38.3236 15.7929L30.0872 30.1782C26.5573 30.6568 23.1909 31.2681 20 32L38.3236 0L55 29.1245C52.8515 29.0253 50.6697 28.9757 48.4547 28.9757C47.5932 28.9757 46.7356 28.9838 45.8821 28.9999Z" fill="#F0F3F5"/>
<path d="M27.3022 72C17.8046 67.8058 11.9994 62.1893 11.9994 56.0209C12.03 53.9019 12.6721 51.8374 13.8476 50.078H67.8226L58.0002 32.9587C61.7407 32.6444 65.6175 32.4833 69.5826 32.4833C74.7381 32.4786 79.8899 32.7637 85.0138 33.3374L86 33.4543C85.134 33.234 84.2533 33.0232 83.358 32.8217C74.4636 30.9042 65.389 29.9586 56.2923 30.0014H56.1199C53.8828 30.0014 51.6778 30.0578 49.5128 30.1585C48.7912 30.1948 48.0736 30.231 47.3599 30.2794C40.9437 30.6589 34.5684 31.559 28.2965 32.9708L26.8131 33.3253C23.587 34.1054 20.4123 35.0863 17.3074 36.2625C6.64314 40.3761 4.40108e-06 46.1739 4.40108e-06 52.5922C-0.00801387 60.8356 10.9409 68.0516 27.3022 72ZM49.4808 33.9579L54.1915 42.165H23.0285C29.6275 38.4664 38.8044 35.5816 49.4808 33.9579Z" fill="#E62900"/>
<path d="M40.5164 72L39.6587 69.4271H33.9615L33.1039 72H30.0613L35.0642 57.7059H38.5561L43.5794 72H40.5164ZM34.86 66.7929H38.7807L36.8203 60.9527L34.86 66.7929ZM53.3849 57.7059V60.4013H49.5255V72H46.7075V60.4013H42.8685V57.7059H53.3849ZM66.168 70.1418C64.7249 71.5712 62.9688 72.2859 60.8996 72.2859C58.8303 72.2859 57.0742 71.5712 55.6312 70.1418C54.2017 68.6987 53.487 66.9358 53.487 64.8529C53.487 62.7701 54.2017 61.0139 55.6312 59.5845C57.0742 58.1415 58.8303 57.42 60.8996 57.42C62.9688 57.42 64.7249 58.1415 66.168 59.5845C67.611 61.0139 68.3325 62.7701 68.3325 64.8529C68.3325 66.9358 67.611 68.6987 66.168 70.1418ZM57.6119 68.2223C58.4968 69.0935 59.5927 69.5292 60.8996 69.5292C62.2064 69.5292 63.3023 69.0935 64.1872 68.2223C65.0721 67.3374 65.5145 66.2143 65.5145 64.8529C65.5145 63.4916 65.0721 62.3685 64.1872 61.4836C63.3023 60.5987 62.2064 60.1563 60.8996 60.1563C59.5927 60.1563 58.4968 60.5987 57.6119 61.4836C56.727 62.3685 56.2846 63.4916 56.2846 64.8529C56.2846 66.2143 56.727 67.3374 57.6119 68.2223ZM84.3009 57.7059V72H81.5034V62.7292L77.4806 69.3658H77.1539L73.1311 62.7497V72H70.3131V57.7059H73.2128L77.3172 64.465L81.4013 57.7059H84.3009Z" fill="white"/>
</svg>
