<svg width="66" height="65" viewBox="0 0 66 65" fill="none" xmlns="http://www.w3.org/2000/svg">
<g clip-path="url(#clip0_233_1600)">
<path d="M27.5269 59.3303C27.8379 60.6929 28.1573 61.9184 28.3675 63.1607C28.4628 63.6895 28.5552 64.4897 28.2722 64.7388C27.9892 64.9878 27.1318 64.985 26.6722 64.7723C23.6432 63.3734 21.7743 61.0511 21.1802 57.7327C21.0991 57.3816 20.9016 57.0681 20.6198 56.843C20.184 56.551 19.7237 56.2973 19.244 56.0847C19.054 56.0163 18.8604 55.9584 18.664 55.9112C18.4903 57.2095 18.3586 58.4602 18.1456 59.6969C18.0532 60.2313 17.8654 61.0958 17.5852 61.1686C17.2956 61.2026 17.0021 61.174 16.7246 61.0847C16.447 60.9954 16.192 60.8475 15.9769 60.651C13.8221 58.5609 12.7125 55.97 13.2112 52.9902C13.4915 51.3926 12.6284 50.6399 11.53 49.5235C10.8912 50.777 10.3391 51.9521 9.69747 53.0741C9.41727 53.5386 9.02497 54.1402 8.59345 54.2241C8.27122 54.2885 7.64639 53.7037 7.42783 53.2728C6.07444 50.5896 5.9007 47.7664 7.31293 45.1224C8.10031 43.6507 7.73324 42.6042 6.92625 41.1717C5.90911 42.1566 4.96483 43.1303 3.9589 44.0116C3.60864 44.3194 3.05102 44.63 2.65313 44.5712C2.34491 44.518 1.97222 43.9081 1.90498 43.4996C1.40901 40.4666 2.23282 37.7302 4.46324 35.6653C5.67092 34.5462 5.81383 33.4634 5.58406 31.9888C4.24188 32.098 3.08745 32.6855 1.91339 33.2955C1.45946 33.5305 0.644085 33.6984 0.358277 33.4606C0.0724684 33.2227 -0.0816768 32.3806 0.0444152 31.8909C0.784155 28.9867 2.49061 26.7735 5.27865 25.6179C6.41628 25.1479 7.02992 24.4987 7.24008 23.3796C7.29581 23.1509 7.36505 22.9258 7.44743 22.7053C6.0464 22.2492 4.70144 22.4982 3.32844 22.6745C2.88852 22.7305 2.24964 22.5961 1.99186 22.2996C1.7817 22.0561 1.84614 21.3483 2.05349 21.0069C3.62264 18.43 5.95115 16.7736 8.93813 16.6393C10.6474 16.561 11.5412 15.8643 12.4407 14.3478C11.1602 13.9505 9.91882 13.6036 8.69993 13.1699C8.19837 12.9908 7.45584 12.6858 7.38298 12.3305C7.29892 11.922 7.72485 11.2309 8.13114 10.9315C10.5157 9.16603 13.2392 8.53932 16.0553 9.45424C17.6188 9.96347 18.622 9.4766 19.8913 8.41058C18.8153 7.60757 17.7729 6.87732 16.7922 6.07431C16.3775 5.73296 15.7359 5.12862 15.8255 4.83484C15.9656 4.37038 16.5821 3.88354 17.0949 3.71566C20.0734 2.80913 22.8559 3.3715 25.3048 5.23773C26.0782 5.82809 26.7283 6.10231 27.639 5.74697C28.0845 5.62774 28.539 5.54446 28.9979 5.49795C28.205 4.27805 27.4652 3.21202 26.8123 2.09564C26.5321 1.63118 26.1791 0.9149 26.3584 0.579147C26.5377 0.243394 27.342 -0.0307867 27.8519 0.00278855C30.8109 0.198644 33.3159 1.4549 34.8794 3.96745C35.72 5.32725 36.7568 5.61545 38.1914 5.62384C38.4268 4.27803 37.9561 3.04975 37.6002 1.78788C37.4629 1.30663 37.3873 0.486843 37.6394 0.293785C37.8812 0.1602 38.1496 0.0818564 38.4253 0.0644375C38.701 0.0470187 38.9772 0.0909287 39.2338 0.193029C42.2937 1.53604 44.143 3.88072 44.7959 7.18788C44.9089 7.59525 45.1543 7.95353 45.4936 8.20634C45.9531 8.55888 46.5135 8.76592 47.3345 9.21359C47.511 7.73348 47.6147 6.44364 47.8333 5.16778C47.9145 4.67254 48.0939 3.95627 48.4329 3.80518C48.772 3.65409 49.5285 3.90311 49.8732 4.22207C52.0756 6.27016 53.0983 8.83027 52.8405 11.8381C52.6752 13.7491 52.6304 13.7435 54.4909 15.4334C55.1102 14.2079 55.665 13.03 56.2954 11.894C56.5448 11.4464 56.9932 10.7469 57.2958 10.7749C57.7553 10.8168 58.3438 11.3037 58.5707 11.7541C59.8933 14.359 59.9381 17.0507 58.8033 19.7395C57.9935 21.6673 57.9627 21.6589 59.0247 23.8217C60.0278 22.8816 60.9412 21.9638 61.9248 21.13C62.3283 20.7859 62.9223 20.3886 63.3622 20.4557C63.6788 20.5033 64.0375 21.2615 64.1075 21.7428C64.5362 24.7058 63.6704 27.3387 61.5073 29.3532C60.3192 30.4556 60.1511 31.5524 60.4621 33.2311C61.709 32.6716 62.8887 32.1343 64.1048 31.6671C64.5755 31.4852 65.3516 31.2614 65.5814 31.4796C65.7556 31.6944 65.8802 31.945 65.9461 32.2134C66.0119 32.4819 66.0175 32.7616 65.9625 33.0325C65.2704 35.8612 63.6676 38.1219 60.958 39.2355C59.4281 39.8623 58.8789 40.8639 58.5427 42.593C59.9829 42.4895 61.3447 42.3552 62.7149 42.3132C63.1492 42.2993 63.7629 42.3832 63.9786 42.663C64.1944 42.9428 64.1776 43.6255 63.9786 43.9584C62.4039 46.5745 60.0558 48.2645 57.0184 48.3764C55.2783 48.4408 54.4321 49.1934 53.5662 50.6875C54.858 51.0764 56.1189 51.4233 57.3546 51.8486C57.831 52.0137 58.5119 52.2823 58.6155 52.6433C58.7192 53.0042 58.3662 53.7149 57.9991 53.9975C55.6454 55.8105 52.9218 56.496 50.1029 55.6119C48.517 55.1166 47.4578 55.4888 46.124 56.594C47.172 57.3914 48.1499 58.1916 49.1839 58.9079C49.7051 59.266 50.4868 59.5262 50.2038 60.2536C50.0189 60.7209 49.3632 61.1602 48.8532 61.3169C47.4977 61.7509 46.0559 61.845 44.6554 61.5907C43.2548 61.3365 41.9384 60.7418 40.8226 59.8591C39.9483 59.2016 39.2086 58.919 38.2027 59.2995C37.8971 59.3795 37.5847 59.431 37.2696 59.4534C37.5946 60.802 38.3904 61.8317 39.161 62.8865C39.4748 63.3118 39.8503 64.1344 39.6681 64.3778C39.3711 64.7695 38.6202 65.0353 38.0878 64.9962C35.0924 64.7751 32.5762 63.4769 31.0294 60.9C30.1804 59.4926 29.0932 59.4451 27.5269 59.3303ZM25.6495 61.6386C25.6495 60.3516 25.6019 59.2324 25.6495 58.1216C25.6999 57.2459 26.1847 56.7954 27.1318 57.0024C27.8463 57.1591 28.5805 57.4361 29.2894 57.3914C31.0042 57.285 31.9317 58.0461 32.6518 59.5654C33.2907 60.9112 34.518 61.8037 35.9778 62.3157C35.5828 61.1294 35.1652 60.0578 34.8794 58.9582C34.6525 58.0824 35.0784 57.5592 36.0003 57.4669C36.7325 57.4201 37.4577 57.2953 38.1634 57.0948C39.5841 56.6135 40.6853 56.7758 41.8061 57.9341C42.9269 59.0925 44.4176 59.4702 46.0792 59.543C45.2778 58.5693 44.5241 57.7439 43.874 56.8458C43.2631 56.0064 43.4228 55.4915 44.3195 54.9627C45.2162 54.4339 46.166 53.9583 47.0151 53.3511C47.794 52.7915 48.4525 52.7608 49.3324 53.1721C50.9716 53.9387 52.6948 53.9862 54.5161 53.4211C53.4794 52.8055 52.5239 52.3019 51.6357 51.6976C50.6718 51.0428 50.6465 50.5056 51.3975 49.6438C51.9243 49.0367 52.5407 48.4771 52.9414 47.7944C53.6419 46.5997 54.5498 46.1632 55.9508 46.3031C57.59 46.4682 59.0555 45.8442 60.3892 44.7922C59.1788 44.5712 58.0747 44.4229 56.9987 44.1571C56.0405 43.9221 55.7967 43.3345 56.1301 42.4168C56.5224 41.3368 56.9708 40.2708 57.2734 39.1684C57.3368 38.8472 57.4968 38.5529 57.7322 38.325C57.9675 38.097 58.2669 37.9461 58.5903 37.8925C59.4932 37.6768 60.3439 37.2833 61.0926 36.7351C61.8413 36.1869 62.4728 35.4951 62.9503 34.7001C61.7426 34.8791 60.5826 35.0778 59.4141 35.2121C58.5287 35.3128 58.1336 34.8456 58.1476 33.967C58.1672 32.9541 58.2569 31.9245 58.1112 30.9312C57.9599 29.8904 58.2261 29.2525 59.1115 28.6509C60.7339 27.5513 61.7819 25.6907 61.7482 24.37C60.9076 24.8541 60.1062 25.3885 59.2264 25.8278C57.901 26.5049 57.4303 26.2783 56.9848 24.9045C56.7315 24.0362 56.414 23.188 56.0349 22.3667C55.5809 21.4854 55.6033 20.8055 56.2058 19.9717C56.7241 19.2624 57.091 18.4544 57.2838 17.5977C57.4766 16.741 57.4912 15.8539 57.3266 14.9913C56.528 15.9091 55.8443 16.782 55.0682 17.5627C54.3536 18.2817 53.7848 18.181 53.132 17.4004C52.4791 16.6197 51.8178 15.758 51.0753 15.0221C50.4308 14.3842 50.2739 13.7883 50.5149 12.8789C50.765 11.9913 50.8311 11.062 50.7092 10.1479C50.5873 9.23382 50.28 8.35421 49.8059 7.56283C49.6182 8.23993 49.5257 8.70998 49.3576 9.16605C49.1965 9.66142 49.0094 10.148 48.7972 10.6238C48.2368 11.8577 47.7408 11.9976 46.6088 11.3093C46.006 10.8904 45.3653 10.5288 44.695 10.2292C43.3276 9.72282 42.7336 8.8303 42.6159 7.35859C42.487 5.78335 41.6099 4.4879 40.2986 3.29877C40.3378 4.071 40.3827 4.62779 40.3883 5.18458C40.4043 5.74473 40.3865 6.30534 40.335 6.86335C40.2369 7.7391 39.7746 8.18677 38.8415 7.98252C38.2279 7.84542 37.6002 7.62717 36.9894 7.65795C35.0672 7.75308 33.9548 6.87171 33.1422 5.15657C32.551 3.91429 31.3321 3.15045 29.9899 2.63843C30.3962 3.85833 30.8137 4.92994 31.1107 6.03513C31.3377 6.91089 30.9034 7.43412 29.9899 7.52366C29.2585 7.57046 28.5343 7.69519 27.8295 7.89577C26.406 8.37702 25.3076 8.20914 24.1868 7.05639C23.066 5.90364 21.5809 5.51752 19.9193 5.45037C20.7235 6.42406 21.4745 7.25225 22.1245 8.15039C22.7354 8.98977 22.5757 9.50739 21.679 10.0334C20.7824 10.5594 19.8829 10.9903 19.0675 11.5807C18.2521 12.171 17.5824 12.3165 16.6662 11.8157C15.4248 11.1358 12.6648 10.9008 11.558 11.7038C12.0736 11.9556 12.5864 12.1738 13.0655 12.448C13.5795 12.7454 14.0762 13.0714 14.5534 13.4245C15.2539 13.9421 15.3015 14.5437 14.7271 15.2096C14.29 15.7104 13.7576 16.1581 13.4382 16.7233C12.5527 18.2901 11.3451 18.8945 9.49854 18.7154C8.09752 18.5755 6.77493 19.2526 5.62049 20.2123C6.77213 20.4138 7.81171 20.5509 8.82885 20.7719C9.96928 21.0321 10.2299 21.6113 9.81517 22.6885C9.4369 23.6985 9.02778 24.703 8.74758 25.741C8.68568 26.0802 8.52069 26.3922 8.27504 26.6345C8.02939 26.8767 7.71499 27.0376 7.37457 27.0952C6.47016 27.3118 5.61917 27.7093 4.87312 28.2638C4.12706 28.8184 3.50146 29.5183 3.03421 30.3213C4.15503 30.1254 5.17218 29.868 6.20334 29.7813C7.63518 29.6609 7.85653 29.9435 7.83972 31.3593C7.79331 32.3363 7.81861 33.3154 7.91538 34.2888C8.03867 35.1841 7.75285 35.7213 7.02992 36.2165C6.27136 36.7286 5.62149 37.3852 5.11758 38.1486C4.61366 38.912 4.26561 39.7673 4.09339 40.6653C5.17778 40.0609 6.15849 39.4789 7.17564 38.9641C7.99944 38.5472 8.57665 38.8298 8.88207 39.7111C9.18723 40.7101 9.556 41.6886 9.98609 42.6406C10.4372 43.5388 10.3672 44.2074 9.77874 45.0328C9.26632 45.7392 8.90613 46.544 8.72093 47.3964C8.53573 48.2488 8.52953 49.1303 8.70274 49.9852C9.4761 49.0843 10.1346 48.2281 10.8911 47.4671C11.6477 46.706 12.2025 46.7787 12.8974 47.6153C13.5923 48.4519 14.2676 49.2941 15.0326 50.0635C15.6322 50.6595 15.7247 51.2331 15.5201 52.0389C15.069 53.8184 15.1643 55.5727 16.1366 57.2822C16.5765 56.1351 16.9239 55.0831 17.3835 54.0814C17.8038 53.1553 18.3446 53.0517 19.244 53.5666C20.1435 54.0814 21.1074 54.6689 22.0797 55.139C22.769 55.472 23.1725 55.8609 23.2369 56.6919C23.2922 57.6346 23.5339 58.5571 23.9479 59.4061C24.362 60.2551 24.9403 61.0139 25.6495 61.6386Z" fill="white"/>
<path d="M11 31.9679C11.0066 26.1461 13.3201 20.5645 17.4334 16.4466C21.5466 12.3286 27.1239 10.0104 32.9427 10.0001C35.8431 9.99233 38.7164 10.5585 41.3973 11.666C44.0782 12.7736 46.5137 14.4005 48.5637 16.4534C50.6137 18.5063 52.2377 20.9444 53.3423 23.6276C54.4468 26.3109 55.0102 29.1861 54.9999 32.088C54.9999 44.2117 45.1132 54.0084 32.8925 54C20.8141 53.9916 10.9972 44.1027 11 31.9679ZM13.0996 31.9455C13.0745 42.8708 21.9504 51.8462 32.8338 51.8993C35.4532 51.9133 38.0497 51.4109 40.4751 50.4209C42.9004 49.4309 45.1071 47.9726 46.9692 46.1293C48.8312 44.286 50.3122 42.0938 51.3274 39.6779C52.3427 37.262 52.8724 34.6697 52.8863 32.0489C52.8893 26.7736 50.8027 21.712 47.0836 17.9727C43.3644 14.2333 38.3158 12.1209 33.0432 12.098C27.7692 12.0898 22.7072 14.1747 18.9675 17.8954C15.2277 21.6161 13.1155 26.6689 13.094 31.9455H13.0996Z" fill="white"/>
<path d="M26 32.4985C25.997 30.5178 26.7788 28.6166 28.1743 27.2112C29.5699 25.8058 31.4653 25.0108 33.4457 25.0002C34.4353 24.9927 35.4166 25.1812 36.333 25.5548C37.2494 25.9284 38.0827 26.4798 38.785 27.1771C39.4873 27.8745 40.0445 28.704 40.4247 29.6178C40.8049 30.5316 41.0004 31.5116 41 32.5014C41.0004 33.4913 40.8048 34.4714 40.4244 35.3853C40.044 36.2991 39.4864 37.1285 38.7838 37.8257C38.0812 38.5228 37.2475 39.0739 36.3308 39.4471C35.4141 39.8202 34.4326 40.008 33.4429 39.9997C31.463 39.9869 29.5687 39.1907 28.174 37.7851C26.7793 36.3795 25.9977 34.4788 26 32.4985ZM33.4715 27.1483C32.0644 27.1639 30.7193 27.7299 29.7243 28.7251C28.7293 29.7203 28.1634 31.0655 28.1478 32.4728C28.15 33.8982 28.717 35.2646 29.7244 36.2727C30.7319 37.2809 32.0977 37.8486 33.5228 37.8516C34.9468 37.8321 36.3054 37.2508 37.3029 36.2344C38.3005 35.2179 38.8563 33.8486 38.8494 32.4243C38.821 31.0166 38.2425 29.676 37.2378 28.6898C36.233 27.7036 34.8821 27.1503 33.4743 27.1483H33.4715Z" fill="white"/>
</g>
<defs>
<clipPath id="clip0_233_1600">
<rect width="66" height="65" fill="white"/>
</clipPath>
</defs>
</svg>
