<svg width="66" height="66" viewBox="0 0 66 66" fill="none" xmlns="http://www.w3.org/2000/svg">
<g clip-path="url(#clip0_233_1604)">
<path d="M27.2616 35.2474V30.7021C26.1725 30.7021 25.1229 30.7021 24.0733 30.7021C23.1633 30.7202 22.7507 30.3233 22.7537 29.4112C22.7537 20.0539 22.7537 10.6977 22.7537 1.3424C22.7537 0.366671 23.1967 -0.00301174 24.1431 1.84613e-05C30.0585 0.0161796 35.9729 0.0161796 41.8862 1.84613e-05C42.8509 1.84613e-05 43.2483 0.418177 43.2483 1.37269C43.2362 10.6916 43.2362 20.0095 43.2483 29.3263C43.2483 30.2809 42.86 30.7293 41.8923 30.7051C40.873 30.6778 39.8568 30.7051 38.7647 30.7051V35.2504H41.7194C46.1939 35.2504 50.6683 35.2716 55.1428 35.2504C56.2288 35.2504 56.793 35.6564 57.1176 36.6867C59.9671 45.6379 62.8318 54.5841 65.7116 63.5253C65.839 63.9192 66.0817 64.3858 65.9725 64.7192C65.7794 65.1977 65.4543 65.6117 65.0351 65.9131C64.8167 66.0797 64.3769 65.9555 64.0341 65.9555H2.05293C-0.0280741 65.9555 -0.346604 65.4979 0.299538 63.4889C3.16319 54.5841 6.01977 45.6743 8.86927 36.7594C9.20902 35.6837 9.75507 35.2443 10.8957 35.2443C16.3105 35.2686 21.7223 35.2474 27.2616 35.2474ZM48.7997 41.7502C48.9513 42.1472 49.0514 42.3865 49.1394 42.632C50.8382 47.3955 52.539 52.1579 54.2418 56.9194C54.8485 58.6466 54.5452 59.1193 52.725 59.1193H14.1658C12.6066 59.1193 12.2729 58.6497 12.7643 57.1649C13.4074 55.2316 14.1021 53.3135 14.6997 51.3681C15.0031 50.3802 15.54 49.9924 16.5926 50.0045C21.2552 50.0469 25.9208 50.0227 30.5833 50.0227H31.8574C31.8574 48.8924 31.7512 47.9015 31.8786 46.9379C32.182 44.6228 31.548 42.732 29.7005 41.2472C29.15 40.7815 28.6607 40.2479 28.2445 39.6594C27.7925 39.0533 27.4436 38.3715 26.9734 37.6018H11.0261C8.26257 46.2985 5.52632 54.9225 2.77187 63.601H63.2241C60.4484 54.8619 57.7031 46.2107 54.9577 37.5776H39.0196C38.5797 38.3473 38.3158 39.0078 37.8789 39.526C36.8809 40.7139 35.7979 41.829 34.7574 42.9835C34.533 43.232 34.1902 43.5198 34.1841 43.7956C34.1356 45.8592 34.1568 47.9227 34.1568 50.0681H40.8821V52.3256H16.72C16.2347 53.8407 15.7797 55.2983 15.3064 56.7891H51.8423L46.7581 42.4017L48.7997 41.7502ZM40.8821 28.3779V2.38479H25.1078V28.3779H40.8821ZM32.995 41.4744C34.0688 40.2957 35.0426 39.2412 35.9982 38.1715C36.1911 37.9948 36.3229 37.7613 36.3743 37.5049C36.4047 35.2565 36.3925 33.0081 36.3925 30.7899H29.5822C29.5822 32.9929 29.5822 35.108 29.5822 37.22C29.585 37.5157 29.6853 37.8021 29.8674 38.0352C30.8715 39.1745 31.8999 40.2624 32.995 41.4744Z" fill="white"/>
<path d="M23.5404 46L28 47.0638C27.817 47.7261 27.6514 48.3191 27.4596 49L23 47.9362C23.1888 47.2713 23.3544 46.6755 23.5404 46Z" fill="white"/>
<path d="M37.4328 47L36 45.1941L39.5879 42L41 43.831L37.4328 47Z" fill="white"/>
<path d="M38 47.0733L42.4193 46C42.608 46.6467 42.7851 47.2612 43 47.9615L38.5894 49L38 47.0733Z" fill="white"/>
<path d="M26.4264 42L30 45.1586L28.5914 47L25 43.8414L26.4264 42Z" fill="white"/>
</g>
<defs>
<clipPath id="clip0_233_1604">
<rect width="66" height="66" fill="white"/>
</clipPath>
</defs>
</svg>
