<svg width="66" height="68" viewBox="0 0 66 68" fill="none" xmlns="http://www.w3.org/2000/svg">
<g clip-path="url(#clip0_233_1591)">
<path d="M63.3719 0C64.2556 0.640798 63.9849 1.55834 63.8668 2.38587C63.2843 6.49127 59.707 9.69929 55.6135 9.7893C53.6311 9.83229 51.6474 9.7893 49.5947 9.7893C49.5774 10.0808 49.5535 10.3159 49.5535 10.551C49.5535 11.8245 49.5628 13.1034 49.5535 14.3716C49.5243 17.0759 47.7662 18.8505 45.0964 18.872C43.7974 18.8827 42.497 18.872 41.0945 18.872V19.6189C41.0945 21.0496 41.0945 22.479 41.0945 23.9097C41.0945 24.7466 40.7283 25.1913 40.0781 25.2047C39.3934 25.2168 39.0166 24.7654 39.0166 23.8909C39.0166 22.2425 39.0166 20.5955 39.0166 18.9109H25.9917V19.6485C25.9917 26.798 25.9974 33.948 26.0089 41.0984C26.0175 41.4854 26.1507 41.859 26.3884 42.1623C28.3788 44.5496 30.4103 46.9085 32.4922 49.3549C32.739 49.0741 32.9699 48.8175 33.1915 48.5596C35.0067 46.4276 36.8298 44.3024 38.6238 42.1503C38.8513 41.868 38.9826 41.5188 38.998 41.1548C39.0232 37.044 39.0152 32.9319 39.0152 28.8211C39.0042 28.6201 39.0077 28.4185 39.0259 28.2179C39.1121 27.6403 39.4425 27.2601 40.0263 27.244C40.6102 27.2279 40.9552 27.6013 41.068 28.1696C41.0941 28.3474 41.1021 28.5275 41.0918 28.7069C41.0918 33.0192 41.1104 37.3315 41.0693 41.6438C41.0492 42.1674 40.8631 42.6704 40.5385 43.0785C38.2496 45.8285 35.9156 48.5408 33.5882 51.2584C32.739 52.2485 32.2613 52.2458 31.4107 51.2584C29.0701 48.5233 26.7201 45.7962 24.414 43.0302C24.1102 42.6337 23.9412 42.1483 23.9323 41.6465C23.9018 34.3626 23.9111 27.0787 23.9111 19.7949V18.88C23.6457 18.88 23.4201 18.88 23.1906 18.88C21.8451 18.8612 20.4863 18.9526 19.1568 18.7981C16.901 18.5294 15.4693 16.7951 15.4414 14.4898C15.4282 13.172 15.4414 11.8527 15.4414 10.5349V9.80676C13.743 9.80676 12.1149 9.84303 10.4894 9.79467C9.45975 9.76377 8.40222 9.73825 7.41235 9.48569C3.78326 8.55875 1.11089 5.07802 1.00075 1.30444C0.98483 0.732151 1.22234 0.331818 1.64031 0H63.3719ZM61.834 2.09166H3.18483C3.23525 2.36034 3.26047 2.582 3.31752 2.79022C4.16276 5.86525 6.74889 7.76077 10.1086 7.76883C23.7713 7.76883 37.434 7.76883 51.0967 7.76883C52.4435 7.76883 53.7903 7.78495 55.1358 7.76883C58.1877 7.72584 60.6637 5.93779 61.5846 3.13413C61.6881 2.805 61.7451 2.45975 61.834 2.09166ZM47.4769 9.85378H17.5844C17.5597 9.90865 17.5419 9.96641 17.5313 10.0257C17.5313 11.4108 17.5937 12.8012 17.5008 14.1795C17.3893 15.8493 18.5159 16.8125 20.079 16.8018C28.3549 16.7494 36.6321 16.7776 44.908 16.7776C45.107 16.7776 45.3061 16.7776 45.5038 16.7709C46.5189 16.7158 47.4358 15.8789 47.465 14.8579C47.5114 13.2082 47.4769 11.5559 47.4769 9.85378Z" fill="white"/>
<path d="M63.5648 43.5851L61.2925 39.467C58.7362 40.9206 56.2196 42.3512 53.7018 43.7778C47.1034 47.5227 40.5082 51.2712 33.916 55.0234C33.2603 55.3979 32.736 55.4032 32.079 55.0234C23.1623 49.9385 14.2386 44.8644 5.30773 39.8011C5.1166 39.692 4.92149 39.5937 4.67993 39.4643L2.41028 43.5757C2.87217 43.8451 3.30088 44.0943 3.73756 44.3408L9.91075 47.8433C10.109 47.9412 10.2971 48.059 10.4722 48.1949C10.8372 48.5182 10.9819 48.9183 10.7668 49.3965C10.5518 49.8747 10.1868 50.0701 9.69704 49.9879C9.44079 49.9291 9.19562 49.8285 8.97102 49.6902C6.2554 48.1527 3.54289 46.6121 0.833464 45.0683C-0.0876704 44.5429 -0.21509 44.093 0.302551 43.1608C1.27589 41.3808 2.2541 39.604 3.23717 37.8303C3.75083 36.9008 4.18352 36.7836 5.12722 37.3197C14.2058 42.4711 23.2818 47.6278 32.3551 52.7899C32.8422 53.0687 33.1939 53.0512 33.6731 52.7777C42.7251 47.6157 51.7838 42.4661 60.8492 37.3292C61.8181 36.7782 62.2442 36.8968 62.7804 37.868C63.7617 39.6435 64.7408 41.4203 65.7177 43.1985C66.2088 44.093 66.076 44.5456 65.1868 45.0562C60.2448 47.8644 55.3007 50.6686 50.3544 53.4688C49.9562 53.6924 49.8049 53.9322 49.8062 54.3997C49.8261 58.4329 49.8181 62.4661 49.8168 66.5007C49.8168 67.6942 49.5115 68 48.3303 68H17.6568C16.4742 68 16.1968 67.709 16.1968 66.4872C16.1968 62.52 16.1848 58.5541 16.2087 54.5883C16.2087 54.009 16.0932 53.6453 15.5451 53.3893C14.7659 53.0256 14.0359 52.5541 13.2887 52.1284C12.4021 51.626 12.1512 51.1195 12.4923 50.5052C12.8334 49.8909 13.4068 49.8141 14.2695 50.3031C20.2512 53.6996 26.2306 57.0993 32.2078 60.502C32.7812 60.8307 33.2046 60.8725 33.8164 60.5236C43.4614 55.0184 53.1164 49.5308 62.7817 44.0606C62.9967 43.9327 63.2383 43.7778 63.5648 43.5851ZM47.668 65.9349V55.0355C47.4025 55.1702 47.21 55.2712 47.0216 55.379C42.6734 57.8455 38.3199 60.2986 33.989 62.7961C33.2629 63.2137 32.6909 63.2003 31.9742 62.784C27.6406 60.2892 23.2844 57.8348 18.9349 55.3682C18.7398 55.2578 18.5368 55.1581 18.3151 55.0409V65.9349H47.668Z" fill="white"/>
<path d="M21 41.7241C20.9799 42.7045 20.2316 43.2158 19.5681 42.9134C19.02 42.6665 18.5042 42.3492 17.979 42.0522C13.8937 39.7469 9.8115 37.4361 5.73245 35.1199C5.44097 34.9545 5.07695 34.6805 5.01381 34.3958C4.96177 34.0127 5.05799 33.6241 5.28246 33.3109C5.57933 32.9041 6.06963 32.938 6.50081 33.1753C7.76751 33.8831 9.03018 34.6005 10.2942 35.3138C13.5812 37.1676 16.8762 39.0105 20.1457 40.8901C20.5272 41.1084 20.8025 41.5261 21 41.7241Z" fill="white"/>
<path d="M46.8466 43C46.5568 42.7205 46.1341 42.4905 46.0267 42.1601C45.9288 41.8579 46.1193 41.4192 46.2857 41.0902C46.3796 40.9043 46.6749 40.8134 46.8882 40.689L60.0047 33.3736C60.1779 33.2687 60.3571 33.174 60.5415 33.0901C61.0675 32.8748 61.6149 33.054 61.8592 33.5354C62.1195 34.0396 62.0175 34.501 61.5653 34.834C61.2154 35.0713 60.8511 35.2866 60.4744 35.4786C56.3191 37.7967 52.1594 40.1149 47.9952 42.433C47.6692 42.6229 47.323 42.7686 46.8466 43Z" fill="white"/>
<path d="M58 31.3009C57.8721 31.4835 57.6943 31.9098 57.4 32.1026C55.471 33.3667 53.5202 34.5889 51.5682 35.8066C50.9823 36.172 50.4246 36.0038 50.138 35.4355C49.8515 34.8672 50.0101 34.2598 50.6229 33.8684C52.5621 32.623 54.5039 31.3821 56.4573 30.1658C57.1826 29.7134 57.9821 30.2179 58 31.3009Z" fill="white"/>
<path d="M16 34.6924C15.9833 35.6871 15.3502 36.1852 14.7029 35.9368C14.5441 35.8683 14.3907 35.7847 14.2444 35.6871L8.78121 32.2526C8.68672 32.1977 8.59497 32.137 8.50638 32.0707C8.00681 31.6809 7.86425 31.1092 8.13523 30.5751C8.19419 30.4462 8.27604 30.3323 8.37573 30.2403C8.47542 30.1484 8.59082 30.0805 8.71481 30.0407C8.83879 30.0009 8.96872 29.9901 9.09656 30.0091C9.22439 30.028 9.34742 30.0762 9.45802 30.1507C11.4743 31.3922 13.4854 32.6453 15.476 33.9374C15.7483 34.1135 15.8947 34.5336 16 34.6924Z" fill="white"/>
</g>
<defs>
<clipPath id="clip0_233_1591">
<rect width="66" height="68" fill="white"/>
</clipPath>
</defs>
</svg>
