<svg width="66" height="71" viewBox="0 0 66 71" fill="none" xmlns="http://www.w3.org/2000/svg">
<g clip-path="url(#clip0_233_1578)">
<path d="M31.4211 4.33615C31.641 4.60836 31.8703 4.87864 32.0884 5.16044C33.3884 6.85379 34.4047 8.7549 35.0959 10.7867C35.4023 11.6704 36.0959 11.9944 36.7877 11.6206C37.3516 11.3139 37.5095 10.7752 37.2595 10.0046C36.2887 7.05217 34.6831 4.35835 32.5602 2.12015C31.5621 1.05241 31.1729 1.05049 30.1353 2.11056L2.14071 30.6578C2.02605 30.7748 1.90573 30.8898 1.79671 31.0144C1.24595 31.6374 1.2328 32.1856 1.82303 32.7703C5.65014 36.5601 10.1972 38.7129 15.545 38.987C16.3457 39.0292 16.9266 38.5614 16.9566 37.9135C16.9867 37.2656 16.419 36.7384 15.6672 36.679C13.3529 36.5132 11.0877 35.9182 8.98287 34.9231C7.31963 34.152 5.7908 33.1096 4.45652 31.8368L31.4211 4.33615ZM16.7292 0C12.4735 0.082429 8.53738 1.51247 5.32683 4.61985C1.01475 8.79498 -0.624356 13.9746 0.210239 19.9727C0.551724 22.2919 1.37317 24.5103 2.62003 26.4808C2.97341 27.0559 3.53545 27.2476 4.05802 26.9773C4.58058 26.707 4.73471 26.2105 4.57494 25.6354C4.47729 25.3667 4.35124 25.1096 4.199 24.8686C2.06552 20.9446 1.61438 16.8289 2.99597 12.5675C5.93773 3.51378 16.2048 -0.333554 24.4135 4.50675C25.2894 5.02433 25.9398 4.95532 26.3101 4.30356C26.7067 3.60579 26.4981 3.04604 25.6297 2.4997C22.9454 0.82812 20.0187 0.0383391 16.7292 0ZM16.9172 9.32214C11.6991 9.39115 8.0825 13.8883 9.09191 19.089C9.25544 19.9325 9.85882 20.4405 10.5336 20.3025C11.2085 20.1644 11.4547 19.5472 11.2743 18.6424C10.8983 16.7676 11.2743 15.0864 12.5656 13.6583C14.1183 11.933 15.9792 11.2161 18.2612 11.8027C18.8834 11.9618 19.5319 11.5573 19.6465 11.011C19.688 10.854 19.6964 10.6898 19.6712 10.5293C19.6459 10.3688 19.5876 10.2156 19.5 10.0797C19.4125 9.94385 19.2977 9.82846 19.1632 9.74117C19.0287 9.65388 18.8776 9.59665 18.7198 9.57327C18.1183 9.45442 17.5112 9.40265 16.9096 9.32214H16.9172ZM35.5377 44.6209C35.3601 44.3181 35.1556 44.0326 34.9267 43.7679C32.8854 41.6592 30.8252 39.5755 28.7707 37.4822C28.2406 36.9416 27.7312 36.378 27.1691 35.8739C26.5357 35.2988 25.6842 35.502 25.3684 36.2573C25.1184 36.8534 25.3853 37.2982 25.797 37.718C28.3358 40.2944 30.8709 42.8765 33.4023 45.4644C33.546 45.621 33.7097 45.757 33.8891 45.8689C34.6091 46.2772 35.5358 45.6963 35.5301 44.6209H35.5377ZM43.9719 36.4432C44.3141 36.148 44.7051 35.9467 44.8836 35.6208C45.1543 35.132 44.9174 34.6623 44.5359 34.279C41.9519 31.6489 39.3679 29.0169 36.7839 26.383C36.1974 25.7888 35.5471 25.7562 35.0602 26.2603C34.5734 26.7645 34.5959 27.4009 35.1993 28.0182C37.7432 30.6227 40.2946 33.2202 42.8535 35.8106C43.1073 36.0732 43.5077 36.1902 43.9644 36.4432H43.9719ZM29.453 32.1799C29.1071 32.5115 28.7368 32.755 28.5131 33.0981C28.2161 33.5735 28.4737 34.0144 28.8252 34.3748C31.438 37.0432 34.0539 39.7097 36.673 42.3743C37.2369 42.9493 37.8478 42.9493 38.3403 42.4452C38.799 41.9698 38.7839 41.295 38.2407 40.7314C35.6492 38.072 33.0483 35.424 30.438 32.7876C30.2105 32.5537 29.8666 32.4329 29.4455 32.1799H29.453ZM32.6485 28.9556C32.3008 29.2642 31.8271 29.4923 31.7087 29.8451C31.5902 30.1978 31.6917 30.8035 31.938 31.0662C34.5508 33.8036 37.2012 36.4988 39.8629 39.1902C40.3723 39.7059 41.0377 39.6982 41.4907 39.2439C41.9888 38.7416 41.9832 38.1225 41.4174 37.5416C38.7933 34.8502 36.1617 32.1665 33.5226 29.4904C33.3064 29.2872 33.0094 29.1799 32.6391 28.9556H32.6485ZM33.9643 23.9715C33.8083 23.6073 33.7632 23.3523 33.6203 23.1856C32.2463 21.5772 30.4868 20.7472 28.4135 20.6283C27.8214 20.5938 27.4004 20.9408 27.2293 21.5427C27.0583 22.1446 27.4173 22.4399 27.8214 22.7082C28.0325 22.856 28.2734 22.9536 28.5263 22.9939C29.7855 23.1572 30.9599 23.7291 31.876 24.6252C32.2387 24.9683 32.688 25.2003 33.141 24.8878C33.4606 24.6559 33.6918 24.2705 33.9512 23.9734L33.9643 23.9715ZM23.1522 25.0814C23.3139 25.0472 23.4715 24.9951 23.6221 24.9261C24.406 24.3683 25.2143 23.8412 25.9455 23.2181C26.3364 22.8846 26.3214 22.367 26.0319 21.9069C25.7424 21.4469 25.2312 21.1248 24.7819 21.3951C23.9046 21.9249 23.0854 22.5489 22.3383 23.2565C22.1371 23.4482 22.1729 24.0904 22.3214 24.422C22.4699 24.7536 22.8947 24.8993 23.139 25.0833L23.1522 25.0814Z" fill="white"/>
<path d="M49.3019 34.8228C47.5582 33.0662 45.9304 31.4287 44.3083 29.7874C41.4249 26.8738 38.5663 23.9352 35.6601 21.0447C30.2828 15.6922 21.3042 17.6199 18.8463 24.6963C17.4236 28.7976 18.2138 32.555 21.2206 35.7088C23.8513 38.4686 26.5713 41.1439 29.2495 43.8577C29.4264 44.0174 29.585 44.1966 29.7225 44.3919C29.8698 44.5991 29.9378 44.8533 29.9141 45.1074C29.8903 45.3615 29.7764 45.5982 29.5933 45.7738C29.183 46.2139 28.6911 46.2677 28.1763 45.966C28.0169 45.8631 27.8713 45.7397 27.7433 45.5989C24.9948 42.8198 22.2159 40.0696 19.5073 37.2521C12.6693 30.1411 15.9306 18.4175 25.407 16.0016C28.5505 15.2021 31.5535 15.6634 34.5812 17.297C34.6999 17.0793 34.8386 16.8734 34.9953 16.682C38.572 12.9439 42.141 9.20003 45.7462 5.49076C47.8887 3.28442 51.1634 3.56887 52.8786 6.06733C53.4705 6.93018 53.7516 7.97252 53.6748 9.01997C53.598 10.0674 53.1681 11.0564 52.4569 11.8215C51.9004 12.4077 51.2868 12.4788 50.7702 12.0137C50.2535 11.5486 50.2251 10.9759 50.7398 10.3032C51.6174 9.15006 51.5623 7.90275 50.5955 7.03597C49.6286 6.1692 48.4168 6.26721 47.4253 7.26276C43.8189 10.9016 40.2156 14.5455 36.6156 18.1945C36.5339 18.2772 36.4598 18.3694 36.4579 18.3713L39.5331 21.7212C39.7705 21.4925 39.9586 21.3195 40.1371 21.1446C42.3671 18.8903 44.5818 16.6243 46.8364 14.3968C47.1423 14.0951 47.6513 13.8299 48.0502 13.851C48.3712 13.8702 48.8423 14.3008 48.9258 14.6313C48.9565 14.8443 48.9418 15.0615 48.8828 15.2683C48.8239 15.4751 48.722 15.6668 48.5839 15.8306C47.2885 17.2278 45.9247 18.5655 44.5837 19.9185C43.463 21.0485 42.3348 22.1709 41.1533 23.3548C42.8628 25.0845 44.5362 26.747 46.1944 28.421C49.5147 31.774 52.8324 35.1297 56.1475 38.4879C57.0782 39.4277 57.7298 40.5097 57.4106 41.8839C57.272 42.4835 56.8997 43.0485 56.5483 43.5732C56.3299 43.898 55.9538 44.1152 55.5587 44.4592C56.4362 45.3048 57.2131 46.0563 57.9938 46.8059C58.3686 47.156 58.6651 47.5833 58.8633 48.059C59.0615 48.5347 59.1569 49.0477 59.1429 49.5638C59.1387 50.3871 58.8178 51.1764 58.2483 51.7644C57.9139 52.0842 57.5613 52.3839 57.1922 52.6619C57.9634 53.4018 58.6187 54.0072 59.255 54.6472C60.3339 55.7235 60.332 56.0982 59.2835 57.186C59.1866 57.2879 59.0935 57.3936 58.9663 57.5301C59.141 57.7222 59.293 57.8914 59.4544 58.0566C61.1639 59.7864 62.8848 61.5007 64.5829 63.2458C65.8157 64.52 66.3228 66.0614 65.7891 67.7911C65.2819 69.4305 64.167 70.5221 62.4708 70.9122C62.1463 70.9776 61.8157 71.0066 61.4849 70.9987C43.7163 70.9987 25.9464 70.9987 8.17521 70.9987C6.06303 70.9987 4.55488 69.4708 4.54728 67.3471C4.54728 66.0537 4.54728 64.7583 4.54728 63.4649C4.54728 62.2099 4.13511 61.8044 2.87388 61.8024C2.28126 61.8024 1.68863 61.8159 1.09601 61.8024C0.400813 61.7794 0.00382603 61.3508 2.71469e-05 60.6647C-0.00377174 59.9785 0.391301 59.5307 1.0808 59.5115C1.95644 59.4904 2.83588 59.475 3.70962 59.5115C5.30895 59.5865 6.78863 61.1567 6.81522 62.7961C6.83802 64.1625 6.81522 65.529 6.81522 66.8955C6.81522 68.433 7.09063 68.7078 8.57789 68.7078H52.7969C55.6878 68.7078 58.5788 68.7078 61.4698 68.7078C62.9076 68.7078 63.8498 67.7469 63.6807 66.4342C63.6153 65.9644 63.4122 65.5252 63.0976 65.1735C61.219 63.2112 59.2987 61.2912 57.3385 59.3078C57.1352 59.5 56.9586 59.6787 56.7686 59.8575C55.9918 60.6262 55.4675 60.6358 54.7153 59.8709C54.0163 59.1579 53.3382 58.4237 52.436 57.4762C52.191 57.8606 52.0561 58.1739 51.8225 58.4045C50.2896 59.942 48.4339 59.9786 46.8497 58.4699C46.0596 57.7165 45.3207 56.9054 44.5115 56.0713C44.1886 56.3807 43.9246 56.6479 43.6511 56.892C42.0745 58.3372 40.3916 58.3334 38.8569 56.8343C37.5273 55.537 36.2395 54.1956 34.9326 52.8714C33.7778 51.7029 32.6134 50.5401 31.47 49.3581C30.9248 48.7969 30.8868 48.2742 31.28 47.7591C31.7435 47.1652 32.4197 47.1134 33.0066 47.6765C33.5936 48.2396 34.1311 48.845 34.6249 49.362L49.3019 34.8228ZM36.5396 51.1109L38.0325 52.61C38.194 52.4543 38.382 52.2813 38.5625 52.0988L46.4509 44.119C46.6232 43.9244 46.8141 43.7474 47.0207 43.5905C47.2319 43.4289 47.496 43.3544 47.7594 43.3823C48.0228 43.4101 48.2659 43.5381 48.4396 43.7404C48.8613 44.1709 48.8898 44.6764 48.5801 45.1818C48.4412 45.3755 48.2813 45.5527 48.1034 45.7104L40.1656 53.7439C39.9871 53.9246 39.8161 54.1168 39.6471 54.2993C40.6538 55.5928 41.3091 55.7542 42.141 54.9143C46.3312 50.6862 50.5182 46.4503 54.702 42.2067C55.2719 41.6302 55.2871 41.1401 54.7818 40.5097C54.5596 40.2349 54.3658 39.9331 54.1607 39.6468C54.0893 39.7193 54.0103 39.7838 53.9252 39.839C53.4009 40.3598 52.8824 40.8826 52.3543 41.3995C51.7161 42.028 51.1425 42.0837 50.6125 41.5764C50.0826 41.069 50.1225 40.3944 50.7569 39.7563C51.2887 39.2182 51.8548 38.7127 52.4132 38.1861L50.8481 36.6198C46.0805 41.4514 41.311 46.2818 36.5396 51.1109ZM54.1493 46.3619L46.0995 54.5031C46.8004 55.1988 47.5677 55.981 48.3598 56.7363C48.8992 57.2514 49.4748 57.2687 49.9933 56.7498C52.1308 54.6113 54.2569 52.4614 56.3716 50.2999C56.875 49.7829 56.8959 49.1467 56.4096 48.6278C55.6461 47.8129 54.8388 47.048 54.1493 46.3619ZM56.9985 56.1194L55.5473 54.6203L54.2177 55.8253L55.6366 57.4762L56.9985 56.1194Z" fill="white"/>
<path d="M31.0441 4.045L4.07524 31.7849C5.40983 33.0688 6.93901 34.1203 8.60263 34.8981C10.7079 35.9019 12.9736 36.5021 15.2885 36.6693C16.0405 36.7293 16.6046 37.2745 16.5782 37.9146C16.5519 38.5546 15.9672 39.0399 15.1662 38.9974C9.81157 38.7151 5.26349 36.5494 1.44115 32.7266C0.850779 32.1465 0.863937 31.5838 1.41482 30.9554C1.52387 30.8297 1.64421 30.7137 1.7589 30.5958L29.76 1.80005C30.7978 0.730745 31.187 0.732682 32.1854 1.80972C34.3088 4.0674 35.9147 6.78465 36.8857 9.76276C37.1358 10.5362 36.9741 11.0834 36.4138 11.3928C35.7257 11.7699 35.0319 11.4431 34.7217 10.5517C34.0303 8.50221 33.0138 6.58455 31.7134 4.87646C31.4935 4.59222 31.2641 4.31958 31.0441 4.045Z" fill="white"/>
<path d="M17.0486 0C20.3997 0.0381719 23.3813 0.824508 26.1101 2.50025C26.9948 3.0442 27.2074 3.60151 26.8033 4.29624C26.4203 4.94516 25.7635 5.01387 24.8711 4.49855C16.5085 -0.320648 6.04904 3.5099 3.05213 12.5242C1.64464 16.767 2.09466 20.8647 4.27771 24.7716C4.43281 25.0115 4.56123 25.2675 4.6607 25.5351C4.82347 26.0962 4.6856 26.5829 4.13409 26.8711C3.58258 27.1593 3.02915 26.9513 2.66914 26.3768C1.39891 24.4149 0.562067 22.2061 0.21418 19.8971C-0.63606 13.9251 1.03378 8.76808 5.42668 4.61116C8.70317 1.50588 12.7131 0.0820696 17.0486 0Z" fill="white"/>
<path d="M17.1708 9C17.7855 9.0805 18.406 9.13225 19.0131 9.253C19.1743 9.27638 19.3288 9.3336 19.4662 9.42088C19.6037 9.50816 19.7211 9.62352 19.8106 9.75935C19.9 9.89518 19.9596 10.0484 19.9855 10.2089C20.0113 10.3694 20.0027 10.5335 19.9602 10.6905C19.8431 11.2367 19.1803 11.6488 18.5444 11.4821C16.2121 10.8956 14.3179 11.6181 12.7233 13.3374C11.4054 14.7633 11.0193 16.4442 11.4035 18.3206C11.5956 19.2253 11.3248 19.8539 10.6466 19.9804C9.96844 20.1069 9.34022 19.6105 9.17308 18.7672C8.14143 13.5654 11.8377 9.069 17.1708 9Z" fill="white"/>
<path d="M36 43.6796C36 44.7079 35.1028 45.2633 34.3942 44.8765C34.2194 44.7696 34.0599 44.6395 33.92 44.4898C31.4493 42.0215 28.9799 39.5525 26.5117 37.083C26.1108 36.6816 25.8508 36.2563 26.0943 35.6863C26.4019 34.9531 27.2313 34.7698 27.8484 35.3197C28.3977 35.8018 28.8921 36.3407 29.4084 36.8575C31.4097 38.8591 33.4165 40.8551 35.4049 42.8677C35.6276 43.1196 35.8268 43.3914 36 43.6796Z" fill="white"/>
<path d="M44.0106 37C43.5665 36.7359 43.1772 36.6139 42.914 36.3399C40.4186 33.6432 37.9379 30.9326 35.4717 28.208C34.885 27.5639 34.8522 26.9137 35.3365 26.3736C35.8208 25.8335 36.4331 25.8815 37.0125 26.5016C39.5285 29.2449 42.041 31.9915 44.5498 34.7415C44.9153 35.1416 45.151 35.6317 44.8879 36.1418C44.7234 36.4879 44.3451 36.6879 44.0106 37Z" fill="white"/>
<path d="M30.031 32C30.4403 32.2616 30.7729 32.3865 30.9976 32.6283C33.5352 35.3543 36.0637 38.0922 38.583 40.842C39.1111 41.4168 39.1312 42.1224 38.6798 42.614C38.2011 43.1432 37.6127 43.1372 37.059 42.5406C34.5104 39.7895 31.9674 37.0325 29.4298 34.2695C29.0881 33.8968 28.8377 33.441 29.1264 32.9494C29.3348 32.5926 29.6948 32.3429 30.031 32Z" fill="white"/>
<path d="M32.9756 29C33.3445 29.2321 33.6304 29.3433 33.8278 29.5556C36.4214 32.3242 39.004 35.102 41.5755 37.8891C42.1289 38.4844 42.1289 39.1312 41.6474 39.6511C41.2029 40.1213 40.5406 40.1293 40.0499 39.5955C37.4434 36.8177 34.8368 34.02 32.2727 31.1866C32.0311 30.9187 31.9333 30.2838 32.0477 29.9226C32.162 29.5615 32.6343 29.3195 32.9756 29Z" fill="white"/>
<path d="M35 24.0346C34.732 24.3042 34.493 24.6537 34.1492 24.8658C33.6811 25.151 33.2169 24.9389 32.842 24.6276C31.8954 23.8147 30.6819 23.2959 29.3807 23.1478C29.1193 23.1113 28.8704 23.0227 28.6523 22.8887C28.2425 22.6453 27.8754 22.3531 28.0405 21.8315C28.2056 21.3098 28.6523 20.9707 29.2642 21.002C31.4008 21.1098 33.2247 21.8628 34.6445 23.3217C34.7922 23.473 34.8388 23.7043 35 24.0346Z" fill="white"/>
<path d="M22.9311 25C22.6897 24.7976 22.2569 24.6275 22.1194 24.3036C21.9819 23.9797 21.9336 23.2752 22.1361 23.0727C22.8744 22.3254 23.6839 21.6664 24.5509 21.107C24.9949 20.8215 25.4908 21.1434 25.7862 21.6475C26.0815 22.1516 26.0871 22.68 25.7008 23.0322C24.9782 23.6902 24.1794 24.2469 23.4048 24.836C23.253 24.9096 23.0941 24.9646 22.9311 25Z" fill="white"/>
</g>
<defs>
<clipPath id="clip0_233_1578">
<rect width="66" height="71" fill="white"/>
</clipPath>
</defs>
</svg>
